# xmcd CD database file
#
# Track frame offsets:
#	150
#	14369
#	35065
#	49615
#	69045
#	79348
#	103010
#	124060
#	134152
#	154055
#	168101
#	194415
#
# Disc length: 2730 seconds
#
# Revision: 2
# Processed by: cddbd v1.4b41PL1 Copyright (c) Steve Scherf et al.
# Submitted via: Feurio! 1.50.2ß - http://www.feurio.com
#
DISCID=9f0aa80c
DTITLE=Ad Vanderveen - Here Now
DYEAR=1900
DGENRE=
TTITLE0=Soul Power
TTITLE1=Calm before the storm
TTITLE2=Living your dream
TTITLE3=Lasting kind of peace
TTITLE4=Living for today
TTITLE5=Be your own best friend
TTITLE6=End on the run
TTITLE7=Wannabe
TTITLE8=Darkness under the sun
TTITLE9=Every step along the way
TTITLE10=Riding with the wind
TTITLE11=Here now
EXTD=
EXTT0=
EXTT1=
EXTT2=
EXTT3=
EXTT4=
EXTT5=
EXTT6=
EXTT7=
EXTT8=
EXTT9=
EXTT10=
EXTT11=
PLAYORDER=
